<svg xmlns="http://www.w3.org/2000/svg" viewBox="0 0 512 512"><path fill="#fff" d="M512 260.31v3.5q-.3 5.81-.53 11.61c-4.16 103.15-73.12 193.56-169.61 228.03q-7.08 2.53-10.92 2.23c-8.47-.66-11.23-7.25-11.21-15.03q.08-33.92-.07-67.84c-.08-17.86-3.76-34.27-16.78-47.22q-.45-.45.19-.53c26.92-3.1 49.81-8.71 72.42-23.6 34.43-22.66 45.34-68.1 43.58-107.03q-1.69-37.33-25.77-63.85-.33-.37-.15-.83c8.56-22.23 5.94-45.17-2.67-66.89q-.19-.48-.68-.6c-8.54-2.17-18.62.66-26.89 3.85q-22.51 8.67-42.03 22.1-.72.49-1.55.27-63.44-16.93-126.83.03-.51.14-.94-.16-23.3-15.83-50.98-24.68-9.47-3.03-18.66-1.58-.52.08-.71.57c-8.41 22.5-10.86 44.43-2.37 67.14q.17.47-.16.84-23.16 25.47-25.41 60.13c-1.56 23.9 1.58 48.54 10.99 70.73 8.22 19.4 19.63 32.56 37.27 43.31 20.64 12.58 43.45 17.72 66.98 20.24a.47.46 24.9 0 1 .29.78q-13.38 13.75-15.42 32.97a1.08 1.08 0 0 1-.64.87c-11.72 5.21-26.92 7.81-38.88 6.01-12.6-1.9-24.81-11.1-31.47-21.59-7.87-12.41-14.9-21.73-29.05-28.45q-9.31-4.42-19.56-3.19c-13.95 1.68 1.53 13.8 5.37 16.03 10.68 6.17 19.66 19.81 24.52 30.94 2.42 5.55 4.48 11.68 7.87 16.34q10.97 15.06 29.41 19.1 24.74 5.43 50.73.5.51-.1.52.43c.31 14.89-.48 30.29.5 45.09.5 7.5-3.74 13.83-10.78 14.72q-4.2.54-12.56-2.46C75.72 469.54 9.62 384.1 1.02 284.76Q.65 280.5 0 263.44v-3.25q1.59-95.12 63.1-166.37c44.24-51.26 108.32-82.57 175.82-86.94C387.02-2.73 510.01 112.63 512 260.31Z"/></svg>